***************************** TPB IS BENEDICTION TO ME ****************************
*                                                                                 *
*										  *
*	        *                       *                       *	          *
*              ***                     ***                     ***                *
*	      *****                   *****                   *****		  *
*            *******                 *******                 *******		  *
*           *********		    *********               *********             *
*          ***********	           ***********             *********** 		  *
*         *************           *************           *************           *
*        ***************         ***************         ***************	  *
*       *****************       *****************       *****************         *
*      *******************     *******************     *******************        *
*     *** TPB IS D BEST ***   *** TPB IS D BEST ***   *** TPB IS D BEST *** 	  *
*      *******************     *******************     *******************	  *
*       *****************       *****************       *****************         *
*        ***************         ***************         ***************          *
*         *************           *************           *************	 	  *
*          ***********             ***********             ***********            *
*           *********               *********               *********             *
*            *******                 *******                 *******              *
*             *****                   *****		      *****               *
*	       ***                     ***                     ***                *
*	        *                       *                       *                 *
*										  *
*										  *
***************************** TPB IS BENEDICTION TO ME ****************************



Screen Link :---
 
http://www.shotpix.com/images/38869754494726637076.jpg
 
http://www.shotpix.com/images/33861282801954283569.jpg
 
http://www.shotpix.com/images/03056343025029633807.jpg
 
http://www.shotpix.com/images/06163269010000495675.jpg
 
http://www.shotpix.com/images/93116604935399172375.jpg
 
http://www.shotpix.com/images/55195900096867371613.jpg



General Info :---  (Disc 1) :---



Format                           : Matroska
File size                        : 311 MiB
Duration                         : 1h 32mn
Overall bit rate                 : 472 Kbps

Video
ID                               : 1
Format                           : AVC
Format/Info                      : Advanced Video Codec
Format profile                   : High@L4.0
Format settings, CABAC           : Yes
Format settings, ReFrames        : 3 frames
Codec ID                         : V_MPEG4/ISO/AVC
Duration                         : 1h 32mn
Bit rate mode                    : Variable
Bit rate                         : 343 Kbps
Maximum bit rate                 : 25.0 Mbps
Width                            : 656 pixels
Height                           : 496 pixels
Display aspect ratio             : 4:3
Frame rate                       : 23.976 fps
Color space                      : YUV
Chroma subsampling               : 4:2:0
Bit depth                        : 8 bits
Scan type                        : Progressive
Bits/(Pixel*Frame)               : 0.044
Stream size                      : 221 MiB (71%)

Audio
ID                               : 2
Format                           : MPEG Audio
Format version                   : Version 1
Format profile                   : Layer 2
Codec ID                         : A_MPEG/L2
Codec ID/Hint                    : MP2
Duration                         : 1h 32mn
Bit rate mode                    : Constant
Bit rate                         : 128 Kbps
Channel(s)                       : 2 channels
Sampling rate                    : 44.1 KHz
Compression mode                 : Lossy
Stream size                      : 84.4 MiB (27%)



General Info :---  (Disc 2) :---


Format                           : Matroska
File size                        : 311 MiB
Duration                         : 1h 32mn
Overall bit rate                 : 471 Kbps

Video
ID                               : 1
Format                           : AVC
Format/Info                      : Advanced Video Codec
Format profile                   : High@L4.0
Format settings, CABAC           : Yes
Format settings, ReFrames        : 3 frames
Codec ID                         : V_MPEG4/ISO/AVC
Duration                         : 1h 32mn
Bit rate mode                    : Variable
Bit rate                         : 342 Kbps
Maximum bit rate                 : 25.0 Mbps
Width                            : 656 pixels
Height                           : 496 pixels
Display aspect ratio             : 4:3
Frame rate                       : 23.976 fps
Color space                      : YUV
Chroma subsampling               : 4:2:0
Bit depth                        : 8 bits
Scan type                        : Progressive
Bits/(Pixel*Frame)               : 0.044
Stream size                      : 220 MiB (71%)

Audio
ID                               : 2
Format                           : MPEG Audio
Format version                   : Version 1
Format profile                   : Layer 2
Codec ID                         : A_MPEG/L2
Codec ID/Hint                    : MP2
Duration                         : 1h 32mn
Bit rate mode                    : Constant
Bit rate                         : 128 Kbps
Channel(s)                       : 2 channels
Sampling rate                    : 44.1 KHz
Compression mode                 : Lossy
Stream size                      : 84.5 MiB (27%)



***************************** TPB IS BENEDICTION TO ME ****************************
*                                                                                 *
*										  *
*	        *                       *                       *	          *
*              ***                     ***                     ***                *
*	      *****                   *****                   *****		  *
*            *******                 *******                 *******		  *
*           *********		    *********               *********             *
*          ***********	           ***********             *********** 		  *
*         *************           *************           *************           *
*        ***************         ***************         ***************	  *
*       *****************       *****************       *****************         *
*      *******************     *******************     *******************        *
*     *** TPB IS D BEST ***   *** TPB IS D BEST ***   *** TPB IS D BEST *** 	  *
*      *******************     *******************     *******************	  *
*       *****************       *****************       *****************         *
*        ***************         ***************         ***************          *
*         *************           *************           *************	 	  *
*          ***********             ***********             ***********            *
*           *********               *********               *********             *
*            *******                 *******                 *******              *
*             *****                   *****		      *****               *
*	       ***                     ***                     ***                *
*	        *                       *                       *                 *
*										  *
*										  *
***************************** TPB IS BENEDICTION TO ME ****************************




                          Seeding Time : ( 2:00 - 8:00 ) IST



